<svg width="392" height="167" viewBox="0 0 392 167" fill="none" xmlns="http://www.w3.org/2000/svg">
<path fill-rule="evenodd" clip-rule="evenodd" d="M112.9 103.877H91.2012V0H70.0391L0 108.389V120.098H71.2207V156.406H91.2012V120.098H112.9V103.877ZM71.2207 103.877H22.5586L68.8574 31.4746L71.2207 27.1777V103.877ZM370.201 103.877H391.9V120.098H370.201V156.406H350.221V120.098H279V108.389L349.039 0H370.201V103.877ZM301.559 103.877H350.221V27.1777L347.857 31.4746L301.559 103.877ZM195.807 161.406C235.909 161.406 268.307 129.334 268.307 89.9062C268.307 50.4789 235.909 18.4062 195.807 18.4062C155.705 18.4062 123.307 50.4789 123.307 89.9062C123.307 129.334 155.705 161.406 195.807 161.406ZM195.807 166.406C238.609 166.406 273.307 132.156 273.307 89.9062C273.307 47.6565 238.609 13.4062 195.807 13.4062C153.005 13.4062 118.307 47.6565 118.307 89.9062C118.307 132.156 153.005 166.406 195.807 166.406ZM194.807 153.406C230.498 153.406 259.307 124.908 259.307 89.9062C259.307 54.9042 230.498 26.4062 194.807 26.4062C159.116 26.4062 130.307 54.9042 130.307 89.9062C130.307 124.908 159.116 153.406 194.807 153.406ZM194.807 158.406C233.19 158.406 264.307 127.738 264.307 89.9062C264.307 52.0747 233.19 21.4062 194.807 21.4062C156.423 21.4062 125.307 52.0747 125.307 89.9062C125.307 127.738 156.423 158.406 194.807 158.406ZM246.307 90.4062C246.307 117.34 223.827 139.406 195.807 139.406C167.786 139.406 145.307 117.34 145.307 90.4062C145.307 63.4726 167.786 41.4062 195.807 41.4062C223.827 41.4062 246.307 63.4726 246.307 90.4062ZM251.307 90.4062C251.307 120.23 226.458 144.406 195.807 144.406C165.155 144.406 140.307 120.23 140.307 90.4062C140.307 60.5829 165.155 36.4062 195.807 36.4062C226.458 36.4062 251.307 60.5829 251.307 90.4062ZM178.307 57.8552V51.4062H182.307V57.8552H185.529V51.4062H189.529V57.8552H208.799C210.538 57.8552 212.255 58.2357 213.831 58.9701C216.928 60.4131 219.257 63.1163 220.226 66.3929L220.959 68.8745C222.564 74.3032 221.468 80.1722 218.012 84.6558L213.858 90.0451C218.668 93.8119 221.529 99.6083 221.529 105.798V106.677V109.266C221.529 114.262 218.696 118.826 214.219 121.042C212.406 121.939 210.411 122.406 208.389 122.406H189.307V124.406H185.307V122.406H182.307V124.406H178.307V122.406H173.307V118.406H178.418V61.8552H173.307V57.8552H178.307ZM210.012 88.4828L214.844 82.2139C217.517 78.7462 218.364 74.207 217.123 70.0084L216.39 67.5268C215.746 65.3502 214.199 63.5544 212.142 62.5958C211.095 62.108 209.954 61.8552 208.799 61.8552H189.529V88.4828H210.012ZM189.529 92.4828V118.406H208.389C209.796 118.406 211.183 118.082 212.444 117.457C215.558 115.916 217.529 112.741 217.529 109.266V106.677V105.798C217.529 100.438 214.847 95.4457 210.409 92.4828H189.529ZM185.529 118.406V90.4828V61.8552H182.418V118.406H185.529Z" fill="black"/>
</svg>
